<svg xmlns="http://www.w3.org/2000/svg" width="530" height="82" viewBox="0 0 530 82"><defs><style>.a{fill:none;}.b,.c{stroke:none;}.c{fill:#707070;}</style></defs><g class="a"><path class="b" d="M41,0H489a41,41,0,0,1,0,82H41A41,41,0,0,1,41,0Z"/><path class="c" d="M 41 2 C 35.734130859375 2 30.62686157226562 3.030868530273438 25.820068359375 5.064002990722656 C 21.17620849609375 7.0281982421875 17.00518798828125 9.840530395507812 13.4228515625 13.42286682128906 C 9.84051513671875 17.00520324707031 7.0281982421875 21.17620086669922 5.06402587890625 25.820068359375 C 3.0308837890625 30.62686538696289 2 35.73413467407227 2 41 C 2 46.26586532592773 3.0308837890625 51.37313079833984 5.06402587890625 56.179931640625 C 7.0281982421875 60.82379913330078 9.84051513671875 64.99479675292969 13.4228515625 68.57713317871094 C 17.00518798828125 72.15946960449219 21.17620849609375 74.9718017578125 25.820068359375 76.93599700927734 C 30.62686157226562 78.96913146972656 35.734130859375 80 41 80 L 489 80 C 494.265869140625 80 499.3731384277344 78.96913146972656 504.179931640625 76.93599700927734 C 508.8237915039062 74.9718017578125 512.9948120117188 72.15946960449219 516.5771484375 68.57713317871094 C 520.1594848632812 64.99479675292969 522.9718017578125 60.82379913330078 524.9359741210938 56.179931640625 C 526.9691162109375 51.37313079833984 528 46.26586532592773 528 41 C 528 35.73413467407227 526.9691162109375 30.62686538696289 524.9359741210938 25.820068359375 C 522.9718017578125 21.17620086669922 520.1594848632812 17.00520324707031 516.5771484375 13.42286682128906 C 512.9948120117188 9.840530395507812 508.8237915039062 7.0281982421875 504.179931640625 5.064002990722656 C 499.3731384277344 3.030868530273438 494.265869140625 2 489 2 L 41 2 M 41 0 L 489 0 C 511.6436767578125 0 530 18.3563346862793 530 41 C 530 63.64366912841797 511.6436767578125 82 489 82 L 41 82 C 18.3563232421875 82 0 63.64366912841797 0 41 C 0 18.3563346862793 18.3563232421875 0 41 0 Z"/></g></svg>