<svg xmlns="http://www.w3.org/2000/svg" width="213" height="71" viewBox="0 0 213 71"><defs><style>.a{fill:#fff;stroke:#707070;}.b{fill:#676363;}.c{stroke:none;}.d{fill:none;}</style></defs><g transform="translate(-678 -816)"><g class="a" transform="translate(678 816)"><rect class="c" width="213" height="71" rx="35.5"/><rect class="d" x="0.5" y="0.5" width="212" height="70" rx="35"/></g><g transform="translate(682 666.11)"><path class="b" d="M97.609,313.873C91.8,313.839,87,301.986,87,295.95c0-9.86,7.4-12.019,10.248-12.019a11.792,11.792,0,0,1,3.867.951,8.645,8.645,0,0,0,2.208.633,6.868,6.868,0,0,0,1.584-.514,12.7,12.7,0,0,1,4.774-1.154h.011a9.785,9.785,0,0,1,8.188,4.136l.6.9-.86.649a7.232,7.232,0,0,0-3.468,5.964,6.731,6.731,0,0,0,3.756,6.223c.538.324,1.095.658,1.095,1.387,0,.477-3.8,10.711-9.328,10.711a7.506,7.506,0,0,1-3.15-.764,6.387,6.387,0,0,0-2.8-.675,7.212,7.212,0,0,0-2.22.6,10.877,10.877,0,0,1-3.851.9Zm0,0" transform="translate(0 -108.969)"/><path class="b" d="M303.461,165.89c.144,5.187-3.566,8.786-7.271,8.561-.611-4.14,3.705-8.561,7.271-8.561Zm0,0" transform="translate(-193.196 0)"/></g></g></svg>