<svg xmlns="http://www.w3.org/2000/svg" width="22.952" height="22.953" viewBox="0 0 22.952 22.953"><defs><style>.a{fill:#605f5f;}</style></defs><path class="a" d="M290.475,402.89a11.476,11.476,0,1,0,11.477,11.475,11.476,11.476,0,0,0-11.477-11.475Zm0,3.431a3.8,3.8,0,1,1-3.793,3.8,3.8,3.8,0,0,1,3.793-3.8Zm0,16.521a8.427,8.427,0,0,1-5.484-2.023,1.618,1.618,0,0,1-.566-1.231,3.827,3.827,0,0,1,3.845-3.825h4.418a3.821,3.821,0,0,1,3.839,3.825,1.617,1.617,0,0,1-.566,1.231,8.429,8.429,0,0,1-5.486,2.023Zm0,0" transform="translate(-279 -402.89)"/></svg>