<svg xmlns="http://www.w3.org/2000/svg" width="13.104" height="23.301" viewBox="0 0 13.104 23.301"><defs><style>.a{fill:#fff;}</style></defs><path class="a" d="M128.5,4.2H120.43a2.507,2.507,0,0,0-2.538,2.429V25.071a2.483,2.483,0,0,0,2.513,2.426h0l8.085-.009a2.466,2.466,0,0,0,2.495-2.427L131,6.624A2.461,2.461,0,0,0,128.5,4.2Zm-5.2,1.456h2.342a.364.364,0,1,1,0,.728H123.3a.364.364,0,1,1,0-.728Zm-1.407.116a.394.394,0,0,1,.528,0,.356.356,0,0,1,0,.515.382.382,0,0,1-.263.107.387.387,0,0,1-.265-.107.361.361,0,0,1,0-.515Zm2.5,21.007a1.09,1.09,0,1,1,1.117-1.09A1.1,1.1,0,0,1,124.4,26.775Zm5.442-2.92H119.2V7.655h10.639Z" transform="translate(-117.892 -4.196)"/></svg>