<svg xmlns="http://www.w3.org/2000/svg" width="33.723" height="33.723" viewBox="0 0 33.723 33.723"><defs><style>.a{fill:#4a7aff;}.b{fill:#0053bf;}.c{fill:#fff;}.d{fill:#dce1eb;}</style></defs><path class="a" d="M74.723,182.751A16.861,16.861,0,1,1,57.861,165.89a16.861,16.861,0,0,1,16.861,16.861Zm0,0" transform="translate(-41 -165.89)"/><path class="b" d="M193.361,269.947A16.861,16.861,0,0,0,209.483,253.1c0-.066,0-.131,0-.2l-11.7-11.7-12.514,13.08,6.953,6.953-3.206,4.359Zm0,0" transform="translate(-175.76 -236.242)"/><path class="c" d="M197.772,237.3v3.818s-4.384-.636-4.384,2.192v2.828h3.959l-.495,4.313h-3.465V261.69h-4.384V250.448l-3.747-.071v-4.242h3.677v-3.252s-.243-4.838,4.525-5.727a12.738,12.738,0,0,1,4.313.141Zm0,0" transform="translate(-175.757 -232.337)"/><path class="d" d="M301.823,241.116V237.3a12.738,12.738,0,0,0-4.313-.141,6.681,6.681,0,0,0-.865.221V261.69h.794V250.448H300.9l.495-4.313h-3.959v-2.828c0-2.828,4.384-2.192,4.384-2.192Zm0,0" transform="translate(-279.807 -232.337)"/></svg>