<svg xmlns="http://www.w3.org/2000/svg" width="33" height="33" viewBox="0 0 33 33"><defs><style>.a{fill:#fbbb00;}.b{fill:#518ef8;}.c{fill:#28b446;}.d{fill:#f14336;}</style></defs><path class="a" d="M112.313,344.62l-1.149,4.288-4.2.089a16.528,16.528,0,0,1-.122-15.408h0l3.738.686,1.637,3.715a9.845,9.845,0,0,0,.092,6.63Zm0,0" transform="translate(-105 -324.677)"/><path class="b" d="M317.072,386.023a16.493,16.493,0,0,1-5.882,15.949h0l-4.708-.24-.666-4.159a9.834,9.834,0,0,0,4.231-5.022h-8.823v-6.528Zm0,0" transform="translate(-284.36 -372.605)"/><path class="c" d="M152.745,471.373h0a16.5,16.5,0,0,1-24.863-5.048l5.347-4.377a9.813,9.813,0,0,0,14.141,5.024Zm0,0" transform="translate(-125.917 -442.006)"/><path class="d" d="M151.656,233.689l-5.346,4.376a9.811,9.811,0,0,0-14.465,5.137l-5.375-4.4h0a16.5,16.5,0,0,1,25.187-5.113Zm0,0" transform="translate(-124.624 -229.89)"/></svg>