<svg xmlns="http://www.w3.org/2000/svg" xmlns:xlink="http://www.w3.org/1999/xlink" width="213" height="71" viewBox="0 0 213 71"><defs><style>.a{fill:none;}.b{fill:#fff;stroke:#707070;}.c{clip-path:url(#a);}.d{fill:#32bbff;}.e{fill:#2c9fd9;}.f{fill:#29cc5e;}.g{fill:#d93f21;}.h{fill:#ffd500;}.i{fill:#fa0;}.j{stroke:none;}</style><clipPath id="a"><rect class="a" width="35" height="39" transform="translate(0 -0.449)"/></clipPath></defs><g transform="translate(-942 -817)"><g class="b" transform="translate(942 817)"><rect class="j" width="213" height="71" rx="35.5"/><rect class="a" x="0.5" y="0.5" width="212" height="70" rx="35"/></g><g transform="translate(909 603.559)"><g transform="translate(122 229.89)"><g class="c" transform="translate(0 0)"><path class="d" d="M166.053,243.071c-4.461-2.5-11.621-6.5-22.726-12.72a2.678,2.678,0,0,0-2.354-.307L160.027,249.1Zm0,0" transform="translate(-139.076 -229.9)"/><path class="d" d="M124.491,231.339a2.677,2.677,0,0,0-1.831,2.555v33a2.679,2.679,0,0,0,1.426,2.382,2.754,2.754,0,0,0,.4.174l19.054-19.054Zm0,0" transform="translate(-122.594 -231.194)"/><path class="d" d="M160.023,421.874l-19.054,19.054a2.65,2.65,0,0,0,2.355-.308c10.77-6.031,17.849-9.99,22.361-12.506l.37-.208Zm0,0" transform="translate(-139.072 -402.676)"/><path class="e" d="M122.66,421.874v16.5a2.679,2.679,0,0,0,1.426,2.382,2.754,2.754,0,0,0,.4.174l19.054-19.054Zm0,0" transform="translate(-122.594 -402.676)"/><path class="f" d="M139.681,230.341a2.685,2.685,0,0,0-2.759-.134l19.169,19.17,6.316-6.316c-4.461-2.5-11.621-6.5-22.726-12.72Zm0,0" transform="translate(-135.43 -229.889)"/><path class="g" d="M156.091,418.984l-19.169,19.169a2.667,2.667,0,0,0,2.759-.134c10.77-6.031,17.849-9.99,22.361-12.506l.37-.208Zm0,0" transform="translate(-135.43 -400.075)"/></g></g><path class="h" d="M340.288,365.769a2.672,2.672,0,0,0-1.375-2.348s-1.71-.954-6.951-3.885l-6.234,6.234,6.24,6.241c5.184-2.911,6.945-3.892,6.945-3.892a2.672,2.672,0,0,0,1.375-2.349Zm0,0" transform="translate(-183.354 -116.681)"/><path class="i" d="M338.912,424.223a2.672,2.672,0,0,0,1.375-2.349H325.727l6.24,6.241c5.184-2.911,6.945-3.892,6.945-3.892Zm0,0" transform="translate(-183.354 -172.786)"/></g></g></svg>