<svg xmlns="http://www.w3.org/2000/svg" xmlns:xlink="http://www.w3.org/1999/xlink" width="205.758" height="233.724" viewBox="0 0 205.758 233.724"><defs><style>.a{fill:#ed1c24;}.b{stroke:#fff;stroke-linejoin:round;stroke-width:2px;fill:url(#a);}.b,.h{stroke-linecap:round;}.c,.d{fill:#fff;}.c{font-size:32px;font-family:HelveticaNeue-CondensedBold, Helvetica Neue;font-weight:700;}.d{font-size:12px;font-family:Oswald-Regular, Oswald;}.e{fill:#b3b3b3;}.f{fill:#f2f2f2;}.g,.h{fill:none;stroke:gray;stroke-miterlimit:10;stroke-width:2.902px;}.i{fill:#e6e6e6;}</style><linearGradient id="a" x2="1" y2="0.953" gradientUnits="objectBoundingBox"><stop offset="0" stop-color="#fd3575"/><stop offset="0.601" stop-color="#f93d64"/><stop offset="1" stop-color="#fd7456"/></linearGradient></defs><g transform="translate(7651 -9204.75)"><g transform="translate(-7595.051 9304.277)"><rect class="a" width="118.685" height="118.685" transform="translate(118.685 0) rotate(90)"/><rect class="b" width="109.265" height="109.265" transform="translate(4.71 4.71)"/><text class="c" transform="translate(56.541 43.486)"><tspan x="-37.328" y="0">HOME</tspan></text><text class="d" transform="translate(55.931 63.007)"><tspan x="-8.694" y="0">FOR</tspan></text><text class="c" transform="translate(56.365 99.494)"><tspan x="-33.456" y="0">RENT</tspan></text></g><g transform="translate(-7651 9204.75)"><g transform="translate(0 0)"><path class="e" d="M82.578,268.08H61.889V46.858a.55.55,0,0,1,.17-.385l9.474-9.6a1.061,1.061,0,0,1,1.4,0l9.475,9.6a.549.549,0,0,1,.169.385Z" transform="translate(-40.741 -34.985)"/><path class="f" d="M80.324,267.445H59.635V44.675a.555.555,0,0,1,.169-.388l9.474-9.67a1.056,1.056,0,0,1,1.4,0l9.474,9.67a.556.556,0,0,1,.17.388Z" transform="translate(-40.107 -34.35)"/><path class="e" d="M34.712,114.986V94.3h190.4a.874.874,0,0,1,.517.17l12.87,9.474a.871.871,0,0,1,0,1.4l-12.87,9.474a.874.874,0,0,1-.517.17Z" transform="translate(-33.092 -50.786)"/><g transform="translate(61.154 59.891)"><path class="g" d="M120.9,149.354h0a3.346,3.346,0,0,1-3.336-3.336V133.923a3.346,3.346,0,0,1,3.336-3.337h0a3.347,3.347,0,0,1,3.337,3.337v12.095A3.346,3.346,0,0,1,120.9,149.354Z" transform="translate(-117.565 -120.16)"/><line class="h" y2="14.18" transform="translate(3.336)"/><line class="h" y2="14.18" transform="translate(3.336 24.607)"/><g transform="translate(103.678)"><rect class="g" width="6.673" height="18.768" rx="3.336" transform="translate(0 10.427)"/><line class="h" y2="14.18" transform="translate(3.337)"/><line class="h" y2="14.18" transform="translate(3.337 24.607)"/></g></g><path class="f" d="M32.458,112.731V92.042h190.4a.867.867,0,0,1,.516.17l12.871,9.473a.871.871,0,0,1,0,1.4l-12.871,9.474a.872.872,0,0,1-.516.17Z" transform="translate(-32.458 -50.168)"/><path class="e" d="M78.884,107.162a4.05,4.05,0,1,0-4.05,4.05A4.051,4.051,0,0,0,78.884,107.162Z" transform="translate(-43.245 -53.231)"/><path class="i" d="M76.63,104.908a4.05,4.05,0,1,0-4.05,4.05A4.049,4.049,0,0,0,76.63,104.908Z" transform="translate(-42.61 -52.612)"/><path class="e" d="M61.254,467.706l-1.62-1.62H80.324l1.62,1.62Z" transform="translate(-40.107 -233.983)"/><path class="e" d="M32.458,120.835l1.62,1.62h5.112v-1.62Z" transform="translate(-32.458 -57.634)"/></g></g></g></svg>