<svg xmlns="http://www.w3.org/2000/svg" width="37.343" height="43.695" viewBox="0 0 37.343 43.695"><defs><style>.a{fill:#fff;}</style></defs><g transform="translate(-133 -229.89)"><path class="a" d="M213.026,237.571h12.8a1.28,1.28,0,0,0,1.28-1.28V231.17a1.28,1.28,0,0,0-1.28-1.28h-12.8a1.28,1.28,0,0,0-1.28,1.28v5.121a1.28,1.28,0,0,0,1.28,1.28Zm0,0" transform="translate(-69.785)"/><path class="a" d="M245.5,371.888v6.036h2.56v-1.28a1.28,1.28,0,1,1,2.56,0v1.28h2.56v-6.036l-3.84-1.92Zm0,0" transform="translate(-99.695 -124.138)"/><path class="a" d="M162.248,297.094h-4.224a1.28,1.28,0,0,1-1.28-1.28V291.59a1.281,1.281,0,0,1,.375-.9l9.165-9.165v-16.6a1.28,1.28,0,0,0-1.28-1.28h-5.121v2.56a3.845,3.845,0,0,1-3.84,3.84h-12.8a3.845,3.845,0,0,1-3.84-3.84v-2.56H134.28a1.28,1.28,0,0,0-1.28,1.28v37.295a1.28,1.28,0,0,0,1.28,1.28H165a1.28,1.28,0,0,0,1.28-1.28v-8.626l-3.13,3.13a1.279,1.279,0,0,1-.905.375Zm-9.193,0h-6.827a1.28,1.28,0,0,1,0-2.56h6.827a1.28,1.28,0,1,1,0,2.56Zm0-5.121h-6.827a1.28,1.28,0,1,1,0-2.56h6.827a1.28,1.28,0,1,1,0,2.56Zm2.987-13.046v6.047a1.28,1.28,0,0,1-1.28,1.28H144.521a1.28,1.28,0,0,1-1.28-1.28v-6.048a1.28,1.28,0,0,1-1-2.351l6.827-3.414a1.279,1.279,0,0,1,1.145,0l6.827,3.414a1.28,1.28,0,0,1-1,2.352Zm0,0" transform="translate(0 -29.91)"/><path class="a" d="M364.16,449.167h2.414l8.625-8.625-2.414-2.414-8.625,8.625Zm0,0" transform="translate(-204.856 -184.543)"/></g></svg>