<svg xmlns="http://www.w3.org/2000/svg" xmlns:xlink="http://www.w3.org/1999/xlink" width="181.726" height="192.324" viewBox="0 0 181.726 192.324"><defs><style>.a{stroke:#fff;stroke-width:3px;stroke-dasharray:9 4;opacity:0.85;fill:url(#a);}.b{fill:#f9f7f8;stroke:rgba(0,0,0,0);}.c{filter:url(#b);}</style><linearGradient id="a" x1="0.5" x2="0.5" y2="1" gradientUnits="objectBoundingBox"><stop offset="0" stop-color="#fd3575"/><stop offset="0.601" stop-color="#f93d64"/><stop offset="1" stop-color="#fd7456"/></linearGradient><filter id="b" x="0" y="0" width="181.726" height="192.324" filterUnits="userSpaceOnUse"><feOffset dy="3" input="SourceAlpha"/><feGaussianBlur stdDeviation="3" result="c"/><feFlood flood-opacity="0.161"/><feComposite operator="in" in2="c"/><feComposite in="SourceGraphic"/></filter></defs><g transform="translate(10.873 44.238) rotate(-17)"><g class="c" transform="matrix(0.96, 0.29, -0.29, 0.96, 2.54, -45.48)"><path class="a" d="M0,62.191a62.191,62.191,0,1,1,85.606,57.627v18.41a2.075,2.075,0,0,1-3.254,1.708L59.743,124.329A62.188,62.188,0,0,1,0,62.191Zm0,0" transform="translate(10.87 44.24) rotate(-17)"/></g><path class="b" d="M37.55,25.266,49.708,13.108a2.8,2.8,0,0,0,0-3.96L41.38.82a2.8,2.8,0,0,0-3.958,0L25.264,12.977,13.107.82a2.8,2.8,0,0,0-3.958,0L.818,9.148a2.8,2.8,0,0,0,0,3.96L12.976,25.266.818,37.423a2.8,2.8,0,0,0,0,3.958l8.33,8.328a2.8,2.8,0,0,0,3.958,0L25.264,37.553,37.422,49.71a2.8,2.8,0,0,0,3.958,0l8.328-8.328a2.8,2.8,0,0,0,0-3.958Zm0,0" transform="translate(35.763 38.366)"/></g></svg>