<svg xmlns="http://www.w3.org/2000/svg" xmlns:xlink="http://www.w3.org/1999/xlink" width="160.41" height="182.213" viewBox="0 0 160.41 182.213"><defs><style>.a{fill:#ed1c24;}.b{stroke:#fff;stroke-linejoin:round;stroke-width:2px;fill:url(#a);}.b,.h{stroke-linecap:round;}.c,.d{fill:#fff;}.c{font-size:26px;font-family:HelveticaNeue-CondensedBold, Helvetica Neue;font-weight:700;}.d{font-size:11px;font-family:Oswald-Regular, Oswald;}.e{fill:#b3b3b3;}.f{fill:#f2f2f2;}.g,.h{fill:none;stroke:gray;stroke-miterlimit:10;stroke-width:2.902px;}.i{fill:#e6e6e6;}</style><linearGradient id="a" x2="1" y2="0.953" gradientUnits="objectBoundingBox"><stop offset="0" stop-color="#fd3575"/><stop offset="0.601" stop-color="#f93d64"/><stop offset="1" stop-color="#fd7456"/></linearGradient></defs><g transform="translate(7651 -9204.75)"><g transform="translate(26 -147)"><rect class="a" width="92.528" height="92.528" transform="translate(-7540.854 9429.342) rotate(90)"/><rect class="b" width="85.184" height="85.184" transform="translate(-7629.71 9433.014)"/></g><g transform="translate(-5399 187.75)"><g transform="translate(-2252 9017)"><g transform="translate(0)"><path class="e" d="M78.018,217.065H61.889V44.6a.429.429,0,0,1,.132-.3l7.386-7.487a.827.827,0,0,1,1.093,0L77.887,44.3a.428.428,0,0,1,.132.3Z" transform="translate(-45.402 -35.342)"/><path class="f" d="M75.764,216.073H59.635V42.4a.432.432,0,0,1,.132-.3l7.386-7.539a.823.823,0,0,1,1.093,0L75.632,42.1a.433.433,0,0,1,.132.3Z" transform="translate(-44.411 -34.351)"/><path class="e" d="M34.712,110.426V94.3H183.147a.681.681,0,0,1,.4.132l10.034,7.386a.679.679,0,0,1,0,1.093l-10.034,7.386a.681.681,0,0,1-.4.132Z" transform="translate(-33.449 -60.375)"/><g transform="translate(47.676 46.692)"><path class="g" d="M120.166,145.218h0a2.608,2.608,0,0,1-2.6-2.6v-9.429a2.609,2.609,0,0,1,2.6-2.6h0a2.609,2.609,0,0,1,2.6,2.6v9.429A2.609,2.609,0,0,1,120.166,145.218Z" transform="translate(-117.565 -122.458)"/><line class="h" y2="11.055" transform="translate(2.601)"/><line class="h" y2="11.055" transform="translate(2.601 19.184)"/><g transform="translate(80.828)"><rect class="g" width="5.202" height="14.632" rx="2.601" transform="translate(0 8.129)"/><line class="h" y2="11.055" transform="translate(2.601)"/><line class="h" y2="11.055" transform="translate(2.601 19.184)"/></g></g><path class="f" d="M32.458,108.171V92.042H180.893a.676.676,0,0,1,.4.132l10.034,7.386a.679.679,0,0,1,0,1.093l-10.034,7.386a.679.679,0,0,1-.4.132Z" transform="translate(-32.458 -59.396)"/><path class="e" d="M77.1,106.27a3.158,3.158,0,1,0-3.158,3.157A3.158,3.158,0,0,0,77.1,106.27Z" transform="translate(-49.314 -64.224)"/><path class="i" d="M74.844,104.015a3.157,3.157,0,1,0-3.157,3.157A3.157,3.157,0,0,0,74.844,104.015Z" transform="translate(-48.323 -63.245)"/><path class="e" d="M60.9,467.349l-1.263-1.263h16.13l1.263,1.263Z" transform="translate(-44.41 -285.136)"/><path class="e" d="M32.458,120.835l1.263,1.263h3.985v-1.263Z" transform="translate(-32.458 -71.563)"/></g></g></g></g></svg>