<svg xmlns="http://www.w3.org/2000/svg" width="41.952" height="41.953" viewBox="0 0 41.952 41.953"><defs><style>.a{fill:#fff;}</style></defs><g transform="translate(-279 -405.89)"><path class="a" d="M299.974,402.89a20.976,20.976,0,1,0,20.979,20.974,20.975,20.975,0,0,0-20.979-20.974Zm0,6.271a6.937,6.937,0,1,1-6.933,6.938,6.942,6.942,0,0,1,6.933-6.938Zm0,30.2a15.4,15.4,0,0,1-10.023-3.7,2.957,2.957,0,0,1-1.035-2.249,7,7,0,0,1,7.028-6.991h8.076a6.983,6.983,0,0,1,7.017,6.991A2.956,2.956,0,0,1,310,435.66a15.406,15.406,0,0,1-10.028,3.7Zm0,0" transform="translate(0 3)"/></g></svg>