<svg xmlns="http://www.w3.org/2000/svg" xmlns:xlink="http://www.w3.org/1999/xlink" width="201.764" height="215.872" viewBox="0 0 201.764 215.872"><defs><style>.a{stroke:#fff;stroke-width:3px;stroke-dasharray:9 4;opacity:0.85;fill:url(#a);}.b{fill:#f9f7f8;}.c{filter:url(#d);}.d{filter:url(#b);}</style><linearGradient id="a" x1="0.5" x2="0.5" y2="1" gradientUnits="objectBoundingBox"><stop offset="0" stop-color="#fd3575"/><stop offset="0.601" stop-color="#f93d64"/><stop offset="1" stop-color="#fd7456"/></linearGradient><filter id="b" x="0" y="0" width="201.764" height="215.872" filterUnits="userSpaceOnUse"><feOffset dy="3" input="SourceAlpha"/><feGaussianBlur stdDeviation="3" result="c"/><feFlood flood-opacity="0.161"/><feComposite operator="in" in2="c"/><feComposite in="SourceGraphic"/></filter><filter id="d" x="52.083" y="57.104" width="100.665" height="88.379" filterUnits="userSpaceOnUse"><feOffset dy="3" input="SourceAlpha"/><feGaussianBlur stdDeviation="3" result="e"/><feFlood flood-opacity="0.161"/><feComposite operator="in" in2="e"/><feComposite in="SourceGraphic"/></filter></defs><g transform="translate(48.032 7.799) rotate(13)"><g class="d" transform="matrix(0.97, -0.22, 0.22, 0.97, -48.56, 3.21)"><path class="a" d="M146.692,73.346A73.346,73.346,0,1,0,45.73,141.312v21.71a2.449,2.449,0,0,0,3.838,2.017l26.664-18.406a73.346,73.346,0,0,0,70.46-73.287Zm0,0" transform="translate(48.03 7.8) rotate(13)"/></g><g class="c" transform="matrix(0.97, -0.22, 0.22, 0.97, -48.56, 3.21)"><path class="b" d="M17.1,55.608H30.4a1.7,1.7,0,0,0,1.2-.5L71.477,15.387a1.783,1.783,0,0,0,.028-2.495L59.647.546A1.778,1.778,0,0,0,57.109.52L24.685,32.825,16.553,22.583a.766.766,0,0,0-1.065-.131L.3,34.107a.767.767,0,0,0-.137,1.084l15.413,19.55c.067.088.139.176.209.258a1.718,1.718,0,0,0,1.313.609Zm0,0" transform="translate(73.59 63.1) rotate(13)"/></g></g></svg>