<svg xmlns="http://www.w3.org/2000/svg" xmlns:xlink="http://www.w3.org/1999/xlink" width="33.13" height="33.436" viewBox="0 0 33.13 33.436"><defs><style>.a{fill:#fff;}.b{clip-path:url(#a);}</style><clipPath id="a"><rect class="a" width="33.13" height="33.436"/></clipPath></defs><g transform="translate(88 -739.008)"><g transform="translate(-88 739.008)"><g class="b"><path class="a" d="M-75.423,754.8a2.061,2.061,0,0,1,.543,1.4v15.2a1.033,1.033,0,0,0,1.757.736l4.239-4.858c.567-.681.88-1.018.88-1.692V756.2a2.077,2.077,0,0,1,.543-1.4L-55.3,741.6a1.548,1.548,0,0,0-1.138-2.6H-86.449a1.547,1.547,0,0,0-1.138,2.6Zm0,0" transform="translate(88 -739.008)"/></g></g></g></svg>