<svg xmlns="http://www.w3.org/2000/svg" xmlns:xlink="http://www.w3.org/1999/xlink" width="219.353" height="211.794" viewBox="0 0 219.353 211.794"><defs><style>.a,.b{fill:#fff;}.b{font-size:108px;font-family:Arista2.0, 'Arista 2.0';}.c{filter:url(#c);isolation:isolate;}.d{filter:url(#a);}</style><filter id="a" x="0" y="0" width="219.353" height="211.794" filterUnits="userSpaceOnUse"><feOffset dy="3" input="SourceAlpha"/><feGaussianBlur stdDeviation="3" result="b"/><feFlood flood-opacity="0.161"/><feComposite operator="in" in2="b"/><feComposite in="SourceGraphic"/></filter><filter id="c" x="74.23" y="58.159" width="73" height="144" filterUnits="userSpaceOnUse"><feOffset dy="3" input="SourceAlpha"/><feGaussianBlur stdDeviation="3" result="d"/><feFlood flood-opacity="0.161"/><feComposite operator="in" in2="d"/><feComposite in="SourceGraphic"/></filter></defs><g transform="translate(9 6)"><g class="d" transform="matrix(1, 0, 0, 1, -9, -6)"><path class="a" d="M615.154,325.313a7.891,7.891,0,0,0-10.3,0l-36.422,34.194h0l-59.144,51.557c-2.837,2.544-2.042,4.629,1.769,4.629h9.014a6.939,6.939,0,0,1,6.919,6.919v87.662a6.93,6.93,0,0,0,6.922,6.919h14.418V445.945a61.671,61.671,0,1,1,61.665,61.667,69.164,69.164,0,0,1-24.285-4.978l-22.646,14.558H686.087a6.93,6.93,0,0,0,6.919-6.919V422.611a6.929,6.929,0,0,1,6.919-6.919h9.014Z" transform="translate(-498.59 -317.4)"/></g><g transform="translate(74.23 58.159)"><g class="c" transform="matrix(1, 0, 0, 1, -83.23, -64.16)"><text class="b" transform="translate(83.23 164.16)"><tspan x="0" y="0">S</tspan></text></g></g></g></svg>