<svg xmlns="http://www.w3.org/2000/svg" width="19.034" height="19.034" viewBox="0 0 19.034 19.034"><defs><style>.a{fill:#fff;}</style></defs><g transform="translate(-279 -405.89)"><path class="a" d="M288.516,402.89a9.517,9.517,0,1,0,9.518,9.516,9.516,9.516,0,0,0-9.518-9.516Zm0,2.845a3.148,3.148,0,1,1-3.146,3.148,3.15,3.15,0,0,1,3.146-3.148Zm0,13.7a6.988,6.988,0,0,1-4.548-1.678,1.342,1.342,0,0,1-.47-1.021,3.174,3.174,0,0,1,3.189-3.172h3.664a3.168,3.168,0,0,1,3.184,3.172,1.341,1.341,0,0,1-.469,1.021,6.99,6.99,0,0,1-4.55,1.678Zm0,0" transform="translate(0 3)"/></g></svg>