<svg xmlns="http://www.w3.org/2000/svg" xmlns:xlink="http://www.w3.org/1999/xlink" width="88.735" height="33.758" viewBox="0 0 88.735 33.758"><defs><style>.a{opacity:0.551;}.b,.c,.d,.e,.f,.g,.h,.i,.k,.l,.m{fill-rule:evenodd;}.b{fill:url(#a);}.c{fill:#676363;}.d{fill:url(#d);}.e{fill:url(#e);}.f{fill:url(#f);}.g{fill:url(#g);}.h{fill:url(#h);}.i{fill:url(#i);}.j{fill:#605f5f;}.k{fill:#6d6e70;}.l{fill:url(#j);}.m{fill:#939a9d;}.n{fill:url(#k);}</style><linearGradient id="a" x1="0.5" y1="0.641" x2="0.5" y2="-0.214" gradientUnits="objectBoundingBox"><stop offset="0" stop-color="#fff" stop-opacity="0"/><stop offset="0.136" stop-color="#fbfbfb" stop-opacity="0.035"/><stop offset="0.305" stop-color="#f0f0f0" stop-opacity="0.137"/><stop offset="0.492" stop-color="#dddedf" stop-opacity="0.306"/><stop offset="0.691" stop-color="#c4c5c7" stop-opacity="0.537"/><stop offset="0.898" stop-color="#a3a5a8" stop-opacity="0.835"/><stop offset="1" stop-color="#929497"/></linearGradient><linearGradient id="d" x1="-1.783" y1="0.616" x2="1.223" y2="0.491" gradientUnits="objectBoundingBox"><stop offset="0" stop-color="#bbbdbf"/><stop offset="1" stop-color="#404041"/></linearGradient><linearGradient id="e" x1="1.685" y1="0.169" x2="-4.482" y2="1.891" xlink:href="#d"/><linearGradient id="f" x1="0.495" y1="-0.036" x2="0.506" y2="1.161" xlink:href="#d"/><linearGradient id="g" x1="1.643" y1="-0.318" x2="-0.336" y2="0.667" xlink:href="#d"/><linearGradient id="h" x1="0.994" y1="-0.071" x2="-0.501" y2="1.194" xlink:href="#d"/><linearGradient id="i" x1="0.526" y1="-0.115" x2="0.489" y2="0.79" gradientUnits="objectBoundingBox"><stop offset="0" stop-color="#bbbdbf"/><stop offset="0.195" stop-color="#a8aaab"/><stop offset="0.591" stop-color="#78787a"/><stop offset="1" stop-color="#404041"/></linearGradient><linearGradient id="j" x1="0.36" y1="-0.257" x2="0.555" y2="0.836" xlink:href="#d"/><linearGradient id="k" x1="0.5" y1="-2.843" x2="0.5" y2="0.649" xlink:href="#d"/></defs><g class="a" transform="translate(-203.899 -272.41)"><path class="b" d="M281.16,330.261l-8.807,8.807,17.039-.518Z" transform="translate(-52.966 -44.763)"/><path class="b" d="M447.845,287.516l-9.862,10.405,19.647-.613Z" transform="translate(-181.123 -11.689)"/><path class="b" d="M465.756,333.06l-8.692,8.634,16.867-.46Z" transform="translate(-195.887 -46.928)"/><path class="c" d="M396.852,272.41l-17.838,5.48L370,287.222l.019.006,4.083,4.228,4.768-.053,10.809-11.42Z" transform="translate(-128.523)"/><path class="d" d="M525.046,298.345l-.266.1-1.828.715v.993l1.982,2.076.112.118Z" transform="translate(-246.868 -20.068)"/><path class="e" d="M535.023,299.166l-2.812-.82v4.007l2.812,2.946Z" transform="translate(-254.032 -20.068)"/><path class="f" d="M485.694,276.425l-1.437,1.531,13.477,14.029v2.963h5.65Z" transform="translate(-216.927 -3.107)"/><path class="g" d="M272.039,339.234l.208.082,1.422.555v.771l-1.541,1.615-.088.091Z" transform="translate(-52.723 -51.705)"/><path class="h" d="M262.378,339.874l2.186-.637v3.115l-2.186,2.289Z" transform="translate(-45.248 -51.707)"/><path class="i" d="M226.6,322.54l1.123,1.178-10.434,10.838.46,6.04-13.829,2.351,13.124-3.119-1.017-3.454h-2.7Z" transform="translate(-0.019 -38.788)"/><g transform="translate(225.969 292.558)"><rect class="j" width="1.735" height="1.736" transform="translate(0 0)"/><rect class="j" width="1.735" height="1.736" transform="translate(2.328 0)"/><rect class="j" width="1.735" height="1.734" transform="translate(0 2.309)"/><rect class="j" width="1.735" height="1.734" transform="translate(2.328 2.309)"/></g><path class="k" d="M526.171,350.3v.841l3.629,3.63v-.67Z" transform="translate(-249.359 -60.269)"/><path class="l" d="M498.825,325.553l-1.1,1.128,9.927,10.312-.46,5.935,12.784,2.714-12.127-3.406.921-3.052h3.061Z" transform="translate(-227.352 -41.12)"/><path class="c" d="M305.881,319.077l13.864,4.26,8.776,9.089,8.274-8.569,13.192-4.053-12.455,12.875v1.17H318.789v-1.17Z" transform="translate(-78.909 -36.109)"/><path class="m" d="M373.428,291.13l8.534-8.838,15.7-4.822-16.374,17.3-4.3.048Z" transform="translate(-131.173 -3.916)"/><path class="m" d="M325.667,337.22v-.838l-11.611-12.235,11.716,3.6,9.075,9.4,8.572-8.877,11-3.381L343.3,336.378v.842Z" transform="translate(-85.234 -40.031)"/><g transform="translate(267.939 292.82)"><rect class="j" width="1.649" height="1.65" transform="translate(2.227 0)"/><rect class="j" width="1.65" height="1.65" transform="translate(0 0)"/><rect class="j" width="1.649" height="1.65" transform="translate(2.227 2.207)"/><rect class="j" width="1.65" height="1.65" transform="translate(0 2.207)"/></g><path class="n" d="M203.91,404.738l-.011,0c8.007-1.519,16.062-2.691,24.179-3.433,6.738-.615,13.488-.809,20.248-.969a165.835,165.835,0,0,1,34.779,2.623c3.2.609,6.375,1.338,9.528,2.149-9.939-2.3-19.956-3.046-30.144-3.477-4.719-.2-9.435-.216-14.156-.217-6.745.121-13.48.366-20.21.828C220,402.845,211.946,403.43,203.91,404.738Z" transform="translate(0 -98.942)"/></g></svg>