<svg xmlns="http://www.w3.org/2000/svg" width="142.988" height="130.141" viewBox="0 0 142.988 130.141"><defs><style>.a{fill:#b3b3b3;}.b{fill:#f2f2f2;}.c,.d{fill:none;stroke:gray;stroke-miterlimit:10;stroke-width:2.902px;}.d{stroke-linecap:round;}.e{fill:#e6e6e6;}</style></defs><g transform="translate(0 0)"><g transform="translate(0 0)"><path class="a" d="M73.515,165.482H61.889V42.313a.3.3,0,0,1,.1-.214l5.324-5.347a.6.6,0,0,1,.788,0L73.421,42.1a.3.3,0,0,1,.095.214Z" transform="translate(-50.005 -35.694)"/><path class="b" d="M71.261,164.138H59.635V40.1a.308.308,0,0,1,.095-.216L65.054,34.5a.6.6,0,0,1,.788,0l5.324,5.384a.308.308,0,0,1,.1.216Z" transform="translate(-48.661 -34.351)"/><path class="a" d="M34.712,105.923V94.3H167.226a.71.71,0,0,1,.36.1l8.957,5.324a.438.438,0,0,1,0,.788l-8.957,5.324a.71.71,0,0,1-.36.1Z" transform="translate(-33.802 -70.09)"/><g transform="translate(47.428 33.287)"><g transform="translate(0)"><path class="c" d="M119.44,141.133h0a1.88,1.88,0,0,1-1.875-1.875v-6.8a1.88,1.88,0,0,1,1.875-1.875h0a1.881,1.881,0,0,1,1.875,1.875v6.8A1.88,1.88,0,0,1,119.44,141.133Z" transform="translate(-117.565 -124.727)"/><line class="d" y2="7.969" transform="translate(1.875)"/><line class="d" y2="7.969" transform="translate(1.875 13.828)"/></g><g transform="translate(58.983)"><rect class="c" width="3.75" height="10.547" rx="1.875" transform="translate(0 5.859)"/><line class="d" y2="7.969" transform="translate(1.875)"/><line class="d" y2="7.969" transform="translate(1.875 13.828)"/></g></g><path class="b" d="M32.458,103.668V92.042H164.972a.7.7,0,0,1,.359.1l8.958,5.324a.438.438,0,0,1,0,.788l-8.958,5.324a.708.708,0,0,1-.359.1Z" transform="translate(-32.458 -68.746)"/><path class="a" d="M75.336,105.388a2.276,2.276,0,1,0-2.276,2.276A2.276,2.276,0,0,0,75.336,105.388Z" transform="translate(-55.308 -75.347)"/><path class="e" d="M73.082,103.134a2.276,2.276,0,1,0-2.276,2.276A2.276,2.276,0,0,0,73.082,103.134Z" transform="translate(-53.964 -74.003)"/><path class="a" d="M60.545,467l-.91-.91H71.261l.91.91Z" transform="translate(-48.661 -336.856)"/><path class="a" d="M32.458,120.835l.91.91h2.872v-.91Z" transform="translate(-32.458 -85.646)"/></g></g></svg>