<svg xmlns="http://www.w3.org/2000/svg" xmlns:xlink="http://www.w3.org/1999/xlink" width="133" height="47.657" viewBox="0 0 133 47.657"><defs><style>.a,.b,.c{fill:#fff;}.a{font-size:30px;}.a,.c{font-family:Arista2.0, 'Arista 2.0';}.c{font-size:11px;}.d{filter:url(#a);}</style><filter id="a" x="44" y="0" width="37.308" height="36.582" filterUnits="userSpaceOnUse"><feOffset dy="3" input="SourceAlpha"/><feGaussianBlur stdDeviation="3" result="b"/><feFlood flood-opacity="0.161"/><feComposite operator="in" in2="b"/><feComposite in="SourceGraphic"/></filter></defs><g transform="translate(-17 -1)"><g transform="translate(17 13.657)"><text class="a" transform="translate(0 28)"><tspan x="0" y="0">Propshots</tspan></text></g><g transform="translate(19224.748 -11745.923)"><g class="d" transform="matrix(1, 0, 0, 1, -19207.75, 11746.92)"><path class="b" d="M-60.286,140.288a.757.757,0,0,0-.987,0l-3.493,3.279h0l-5.671,4.944c-.272.244-.2.443.17.443h.865a.665.665,0,0,1,.663.663v8.406a.665.665,0,0,0,.663.663h1.383v-6.832a5.914,5.914,0,0,1,5.913-5.913,5.914,5.914,0,0,1,5.915,5.913,5.917,5.917,0,0,1-5.915,5.913,6.627,6.627,0,0,1-2.329-.477l-2.172,1.4h11.8a.665.665,0,0,0,.663-.663v-8.406a.665.665,0,0,1,.663-.663h.864Z" transform="translate(123.6 -134.1)"/></g><g transform="translate(-19147.748 11758.58)"><text class="c" transform="translate(0 10)"><tspan x="0" y="0">S</tspan></text></g></g></g></svg>