<svg xmlns="http://www.w3.org/2000/svg" width="22.104" height="40.301" viewBox="0 0 22.104 40.301"><defs><style>.a{fill:#676363;}</style></defs><path class="a" d="M135.788,4.2H122.173a4.278,4.278,0,0,0-4.281,4.2V40.3a4.238,4.238,0,0,0,4.24,4.2h0l13.637-.015a4.211,4.211,0,0,0,4.208-4.2L140,8.4A4.2,4.2,0,0,0,135.788,4.2Zm-8.774,2.519h3.95a.63.63,0,1,1,0,1.259h-3.95a.63.63,0,0,1,0-1.259Zm-2.374.2a.652.652,0,0,1,.891,0,.631.631,0,0,1-.444,1.077.645.645,0,0,1-.447-.186.635.635,0,0,1,0-.891Zm4.221,36.334a1.884,1.884,0,1,1,1.884-1.884A1.887,1.887,0,0,1,128.862,43.249Zm9.18-5.05H120.1V10.178h17.946Z" transform="translate(-117.892 -4.196)"/></svg>