<svg xmlns="http://www.w3.org/2000/svg" width="40.343" height="42.854" viewBox="0 0 40.343 42.854"><defs><style>.a{fill:#676363;}</style></defs><rect class="a" width="9.016" height="13.572" transform="translate(14.038 23.52)"/><path class="a" d="M345.078,488.73v.232a7.39,7.39,0,1,0,0-.232Zm12.2-1.389-5.638,5.637-3.973-3.973,1.776-1.776,2.2,2.2,3.862-3.862Zm0,0" transform="translate(-319.513 -453.381)"/><path class="a" d="M134.546,235.737l18.546,11.128v-5.847L134.546,229.89l-4.508,2.7v-2.7h-8.274v7.669L116,241.018v5.847Zm0,0" transform="translate(-116 -229.89)"/><path class="a" d="M150.469,320.757h14.038v7.873a9.878,9.878,0,0,1,7.388-3.318,9.993,9.993,0,0,1,1.257.079v-7.469l-15.664-9.4-15.664,9.4V336.84h8.645Zm0-5.555h14.038v2.511H150.469Zm0,0" transform="translate(-138.942 -299.748)"/></svg>