<svg xmlns="http://www.w3.org/2000/svg" xmlns:xlink="http://www.w3.org/1999/xlink" width="114.879" height="130.493" viewBox="0 0 114.879 130.493"><defs><style>.a{fill:#ed1c24;}.b{stroke:#fff;stroke-linejoin:round;stroke-width:2px;fill:url(#a);}.b,.f{stroke-linecap:round;}.c{fill:#b3b3b3;}.d{fill:#f2f2f2;}.e,.f{fill:none;stroke:gray;stroke-miterlimit:10;stroke-width:2.902px;}.g{fill:#e6e6e6;}</style><linearGradient id="a" x2="1" y2="0.953" gradientUnits="objectBoundingBox"><stop offset="0" stop-color="#fd3575"/><stop offset="0.601" stop-color="#f93d64"/><stop offset="1" stop-color="#fd7456"/></linearGradient></defs><g transform="translate(31.237 55.568)"><rect class="a" width="66.264" height="66.264" transform="translate(66.264) rotate(90)"/><rect class="b" width="61.005" height="61.005" transform="translate(2.63 2.63)"/></g><g transform="translate(0 0)"><g transform="translate(0)"><g transform="translate(0)"><path class="c" d="M73.44,165.842H61.889V42.329a.307.307,0,0,1,.095-.215l5.29-5.362a.592.592,0,0,1,.783,0l5.29,5.362a.306.306,0,0,1,.094.215Z" transform="translate(-50.082 -35.7)"/><path class="d" d="M71.186,164.492H59.635V40.115a.31.31,0,0,1,.094-.217l5.29-5.4a.59.59,0,0,1,.783,0l5.29,5.4a.31.31,0,0,1,.095.217Z" transform="translate(-48.732 -34.351)"/><path class="c" d="M34.712,105.848V94.3h106.3a.488.488,0,0,1,.288.095l7.186,5.29a.486.486,0,0,1,0,.783l-7.186,5.29a.488.488,0,0,1-.288.095Z" transform="translate(-33.808 -70.003)"/><g transform="translate(34.143 33.439)"><path class="e" d="M119.428,141.064h0a1.868,1.868,0,0,1-1.863-1.863v-6.753a1.868,1.868,0,0,1,1.863-1.863h0a1.869,1.869,0,0,1,1.863,1.863V139.2A1.868,1.868,0,0,1,119.428,141.064Z" transform="translate(-117.565 -124.765)"/><line class="f" y2="7.917" transform="translate(1.863)"/><line class="f" y2="7.917" transform="translate(1.863 13.738)"/><g transform="translate(57.886)"><rect class="e" width="3.726" height="10.478" rx="1.863" transform="translate(0 5.821)"/><line class="f" y2="7.917" transform="translate(1.863)"/><line class="f" y2="7.917" transform="translate(1.863 13.738)"/></g></g><path class="d" d="M32.458,103.593V92.042h106.3a.484.484,0,0,1,.288.095l7.186,5.289a.486.486,0,0,1,0,.783l-7.186,5.29a.487.487,0,0,1-.288.095Z" transform="translate(-32.458 -68.663)"/><path class="c" d="M75.307,105.373a2.261,2.261,0,1,0-2.261,2.261A2.262,2.262,0,0,0,75.307,105.373Z" transform="translate(-55.408 -75.262)"/><path class="g" d="M73.052,103.119a2.261,2.261,0,1,0-2.261,2.261A2.261,2.261,0,0,0,73.052,103.119Z" transform="translate(-54.058 -73.921)"/><path class="c" d="M60.539,466.991l-.9-.9H71.186l.9.9Z" transform="translate(-48.732 -336.498)"/><path class="c" d="M32.458,120.835l.9.9h2.854v-.9Z" transform="translate(-32.458 -85.548)"/></g></g></g></svg>